# xmcd CD database file
#
# Track frame offsets:
#	150
#	15750
#	32790
#	48321
#	71583
#	90805
#	115474
#	133621
#	157963
#	174672
#	182979
#
# Disc length: 2619 seconds
#
# Revision: 0
# Processed by: cddbd v1.5.1PL0 Copyright (c) Steve Scherf et al.
# Submitted via: CDex 1.50
#
DISCID=840a390b
DTITLE=Venancio - Livin' for the Now
DYEAR=2003
DGENRE=Blues
TTITLE0=Livin' for the Now
TTITLE1=Soul Searching
TTITLE2=Mr. Alibi
TTITLE3=Song for the Everyman
TTITLE4=On my Own
TTITLE5=Unrequited
TTITLE6=Increase the light
TTITLE7=The Road
TTITLE8=Power Pop Tune
TTITLE9=Long Way Home (Instrumental)
TTITLE10=Took a Chance (Live Studio Take)
EXTD=YEAR: 2003
EXTT0=
EXTT1=
EXTT2=
EXTT3=
EXTT4=
EXTT5=
EXTT6=
EXTT7=
EXTT8=
EXTT9=
EXTT10=
PLAYORDER=
